<svg width="188" height="30" viewBox="0 0 188 30" xmlns="http://www.w3.org/2000/svg" xmlns:sketch="http://www.bohemiancoding.com/sketch/ns"><title>Slice 1</title><path d="M80.737 29.264v-29.033h-5.817v17.877l-16.072-17.889h-2.762v29.049h5.816v-17.77l15.945 17.767h2.89zm27.948-24.853c-2.667-2.675-6.391-4.297-10.564-4.306l-.009.004-.043-.004c-4.202.001-7.946 1.624-10.626 4.306-2.68 2.68-4.302 6.422-4.302 10.618v.022c0 4.212 1.617 7.963 4.3 10.651 2.682 2.688 6.429 4.311 10.631 4.311h.019c4.184-.002 7.921-1.625 10.593-4.314 2.678-2.682 4.297-6.435 4.3-10.648v-.019999999999999997c-.002-4.195-1.622-7.939-4.3-10.62zm-1.693 10.636c0 2.582-1.027 5.011-2.66 6.787-1.637 1.778-3.858 2.881-6.252 2.881-2.451-.001-4.677-1.105-6.307-2.881-1.631-1.774-2.64-4.205-2.641-6.789v-.002l.002-.002h-.002c.019-5.683 4.006-9.626 8.949-9.636v.226-.226c4.836.007 8.899 3.959 8.912 9.638v.004h-.001zm57.455-10.635c-2.673-2.679-6.404-4.301-10.582-4.306l-.007.001-.028-.001c-4.204.001-7.949 1.625-10.629 4.306-2.678 2.679-4.296 6.414-4.302 10.605l.002.015-.002.025c.002 4.21 1.621 7.962 4.304 10.646 2.68 2.687 6.424 4.309 10.632 4.311h.011c4.186-.002 7.925-1.625 10.6-4.311 2.676-2.688 4.295-6.438 4.295-10.653v-.016c0-4.197-1.619-7.94-4.295-10.622zm-1.695 10.641c0 2.578-1.028 5.006-2.661 6.782-1.639 1.775-3.859 2.881-6.25 2.881-2.455-.001-4.68-1.105-6.312-2.881-1.625-1.774-2.637-4.202-2.639-6.782v-.011c.019-5.683 4.005-9.626 8.951-9.638 4.832.009 8.897 3.96 8.911 9.64v.009zm20.067-1.558l.103-.203-.103.203-4.631-2.339c-.488-.24-1.13-.54-1.652-1.059-.506-.508-.92-1.198-.927-2.388.007-.982.359-1.571.902-1.988.56-.424 1.406-.663 2.384-.663h.011l.025-.002c1.724.002 3.455.557 4.592 1.604l.693.638 2.998-4.528-.675-.44c-2.609-1.722-4.494-2.324-7.439-2.328l-.189.001c-2.56 0-4.823.753-6.464 2.148-1.635 1.38-2.618 3.417-2.618 5.78v.054000000000000006c0 1.943.55 3.567 1.521 4.868.976 1.311 2.337 2.292 3.929 3.111l4.969 2.577c.792.392 1.941 1.641 1.963 3.026l-.003.078c-.004.997-.329 1.677-.868 2.152-.547.477-1.395.78-2.539.78-2.061-.019-3.317-.207-5.798-2.008l-.633-.465-3.255 4.189.646.49c3.264 2.496 5.95 2.985 8.536 2.988h.179c3.117 0 5.537-1.002 7.148-2.589 1.614-1.587 2.401-3.722 2.401-5.879v-.03c-.002-3.995-2.619-6.473-5.207-7.774zm-51.18.942l-.9-.095.828-.305c2.5-.95 4.179-3.298 4.179-6.169-.009-4.865-3.961-7.747-10.198-7.768h-10.158v29.409h11.147c6.697-.024 10.767-3.022 10.775-8.218.005-3.308-2.519-6.362-5.673-6.854zm-10.207-9.352h3.497c1.489.001 2.692.19 3.56.747.876.557 1.349 1.506 1.339 2.815.007 1.286-.418 2.308-1.271 2.969-.85.662-2.068.962-3.628.963h-3.497v-7.493h.001zm8.572 18.499c-.753.63-1.885.939-3.466.941h-5.106v-6.962h5.106c1.394.002 2.511.25 3.308.807.798.556 1.228 1.44 1.223 2.554 0 1.09-.309 2.026-1.065 2.66zm-113.754-9.146l-.9-.095.828-.305c2.5-.95 4.179-3.298 4.179-6.169-.008-4.864-3.96-7.747-10.198-7.768h-10.158v29.409h11.147c6.697-.024 10.767-3.022 10.775-8.218.005-3.308-2.519-6.362-5.673-6.854zm-10.207-9.352h3.497c1.489.001 2.692.19 3.56.747.876.557 1.349 1.506 1.339 2.815.007 1.286-.418 2.308-1.271 2.969-.85.662-2.068.962-3.628.963h-3.497v-7.493zm8.572 18.499c-.753.63-1.885.939-3.466.941h-5.106v-6.962h5.106c1.394.002 2.511.25 3.308.807.798.556 1.228 1.44 1.223 2.554 0 1.09-.309 2.026-1.065 2.66zm34.59-19.171c-2.673-2.679-6.404-4.301-10.582-4.306l-.007.001-.028-.001c-4.204.001-7.949 1.625-10.629 4.306-2.678 2.679-4.296 6.414-4.302 10.605l.002.015-.002.025c.002 4.21 1.621 7.962 4.304 10.646 2.68 2.687 6.424 4.309 10.632 4.311h.011c4.186-.002 7.925-1.625 10.6-4.311 2.676-2.688 4.295-6.438 4.295-10.653v-.016c0-4.197-1.619-7.94-4.295-10.622zm-1.695 10.641c0 2.578-1.028 5.006-2.661 6.782-1.639 1.775-3.859 2.881-6.25 2.881-2.455-.001-4.68-1.105-6.312-2.881-1.625-1.774-2.637-4.202-2.639-6.782v-.011c.019-5.683 4.005-9.626 8.951-9.638 4.832.009 8.897 3.96 8.911 9.64v.009z" fill="#000" sketch:type="MSShapeGroup"/></svg>