<svg xmlns="http://www.w3.org/2000/svg" width="232.975" height="62.7"><defs><clipPath id="a"><path d="M0 501.602v-501.602h1863.85v501.602h-1863.85z"/></clipPath></defs><g clip-path="url(#a)"><path d="M34.935 33.321c0-.677-.356-1.3-.941-1.636l-15.586-8.97c-.264-.155-.559-.235-.859-.247h-.161c-.297.012-.593.093-.86.247l-15.586 8.97c-.581.336-.942.959-.942 1.636l.034 24.153c0 .336.174.648.47.813.29.173.647.173.936 0l9.262-5.304c.586-.348.943-.962.943-1.633v-11.284c0-.673.356-1.295.94-1.63l3.944-2.272c.294-.17.615-.253.943-.253.321 0 .651.083.937.253l3.943 2.272c.584.335.941.957.941 1.63v11.284c0 .671.361 1.289.943 1.633l9.26 5.304c.29.173.653.173.941 0 .287-.165.468-.477.468-.813l.03-24.153" fill="#404137" fill-rule="evenodd"/><path d="M116.714 45.897c0 .168-.09.324-.236.407l-5.353 3.086c-.145.084-.325.084-.47 0l-5.354-3.086c-.145-.084-.235-.239-.235-.407v-6.182c0-.168.09-.323.235-.408l5.354-3.092c.146-.085.325-.085.471 0l5.354 3.092c.145.085.235.24.235.408v6.182zm1.446-45.778c-.291-.163-.647-.159-.935.01-.288.169-.464.478-.464.811v23.919c0 .235-.126.453-.329.57-.204.118-.455.118-.659 0l-3.904-2.249c-.582-.336-1.299-.335-1.881 0l-15.592 8.999c-.583.336-.941.958-.941 1.63v18c0 .672.358 1.294.941 1.631l15.591 9.005c.583.336 1.301.336 1.884 0l15.594-9.005c.583-.337.941-.959.941-1.631v-44.871c0-.683-.37-1.312-.966-1.645l-9.279-5.177" fill="#404137" fill-rule="evenodd"/><path d="M173.944 39.553c.58-.337.936-.957.936-1.628v-4.362c0-.671-.356-1.292-.938-1.628l-15.491-8.995c-.584-.338-1.302-.339-1.887-.003l-15.586 8.999c-.583.336-.941.958-.941 1.63v17.996c0 .677.364 1.301.951 1.636l15.49 8.826c.571.326 1.271.33 1.846.01l9.369-5.208c.297-.165.482-.477.484-.816.003-.339-.179-.654-.472-.823l-15.685-9.003c-.294-.168-.474-.479-.474-.816v-5.64c0-.336.18-.647.471-.815l4.883-2.814c.29-.168.649-.168.94 0l4.884 2.814c.291.168.471.479.471.815v4.437c0 .337.18.648.471.816.292.168.651.167.943-.002l9.336-5.427" fill="#404137" fill-rule="evenodd"/><path d="M63.288 22.844c.582-.336 1.3-.336 1.882 0l15.59 8.997c.583.336.942.958.942 1.631v18.007c0 .673-.359 1.294-.941 1.631l-15.59 9.004c-.583.336-1.301.336-1.884 0l-15.586-9.004c-.583-.337-.942-.958-.942-1.631v-18.008c0-.672.359-1.294.942-1.63l15.587-8.997" fill="#83cd29" fill-rule="evenodd"/><path d="M204.214 62.37c-.537 0-1.071-.141-1.541-.413l-4.909-2.904c-.733-.41-.375-.555-.134-.64.979-.339 1.176-.417 2.22-1.009.109-.061.253-.038.365.028l3.77 2.239c.138.076.33.076.456 0l14.7-8.485c.138-.078.225-.236.225-.398v-16.965c0-.166-.087-.321-.228-.405l-14.695-8.478c-.136-.079-.316-.079-.454 0l-14.691 8.48c-.142.082-.233.242-.233.403v16.965c0 .162.09.316.231.393l4.027 2.327c2.185 1.092 3.524-.194 3.524-1.487v-16.751c0-.237.19-.424.426-.424h1.865c.233 0 .425.187.425.424v16.751c0 2.916-1.587 4.588-4.353 4.588-.85 0-1.519 0-3.386-.92l-3.855-2.219c-.953-.55-1.541-1.58-1.541-2.682v-16.965c0-1.103.589-2.131 1.541-2.68l14.701-8.495c.93-.526 2.166-.526 3.089 0l14.7 8.495c.953.551 1.544 1.577 1.544 2.68v16.965c0 1.102-.591 2.127-1.544 2.682l-14.7 8.488c-.47.272-1.002.413-1.548.413" fill="#83cd29"/><path d="M208.755 50.681c-6.434 0-7.781-2.953-7.781-5.43 0-.235.19-.423.425-.423h1.901c.212 0 .389.152.422.36.286 1.935 1.143 2.912 5.032 2.912 3.096 0 4.415-.701 4.415-2.344 0-.947-.374-1.65-5.186-2.122-4.022-.398-6.51-1.287-6.51-4.505 0-2.966 2.5-4.735 6.691-4.735 4.71 0 7.04 1.635 7.335 5.141.011.121-.031.237-.111.327-.081.084-.194.136-.311.136h-1.909c-.198 0-.372-.141-.412-.332-.458-2.036-1.571-2.687-4.591-2.687-3.381 0-3.774 1.178-3.774 2.061 0 1.069.464 1.381 5.029 1.985 4.518.597 6.664 1.443 6.664 4.618 0 3.203-2.671 5.038-7.329 5.038" fill="#83cd29"/><path d="M229.026 22.687v.436h-1.238v3.224h-.499v-3.224h-1.232v-.436h2.969" fill="#83cd29"/><path d="M229.468 22.687h.711l1.05 3.093 1.046-3.093h.706v3.66h-.474v-2.16l.004-.37.007-.558-1.046 3.087h-.491l-1.055-3.087v.11l.006.413.009.405v2.16h-.474v-3.66" fill="#83cd29"/><path d="M157.278 38.711c.113-.065.25-.065.361 0l2.993 1.726c.111.064.18.183.18.313v3.455c0 .129-.069.248-.18.313l-2.993 1.726c-.111.065-.249.065-.361 0l-2.989-1.726c-.113-.065-.181-.184-.181-.313v-3.455c0-.129.069-.248.181-.313l2.989-1.726" fill="#83cd29" fill-rule="evenodd"/></g></svg>