<svg width="78" height="30" viewBox="0 0 78 30" xmlns="http://www.w3.org/2000/svg" xmlns:sketch="http://www.bohemiancoding.com/sketch/ns"><title>Slice 1</title><path d="M26 30l-12.095-30h-1.817l-12.089 30h2.052l4.607-11.432h8.523l-.63-1.567h-7.263l4.817-11.95 10.052 24.949h3.842zm9.276 0h3.724v-14.107l-9.827-15.893h-4.173l10.276 16.563v13.437zm6.822-15l8.902-15h-2.206l-7.794 13.204.732 1.196.366.6zm33.516-6.823c0-2.62-1.103-4.765-3.186-6.203-1.873-1.291-4.43-1.974-7.398-1.974h-8.03v30h3.543v-11.8l14.571 11.8h2.886l-17.417-14.04v-15.14h3.337c5.365 0 7.867 2.337 7.867 7.357 0 2.496-.601 4.292-1.839 5.488-1.286 1.243-3.257 1.846-6.028 1.846h-.814l1.068.82h.856c2.969 0 5.528-.678 7.398-1.963 2.083-1.432 3.186-3.573 3.186-6.192z" sketch:type="MSShapeGroup" fill-rule="evenodd"/></svg>