<?xml version="1.0" encoding="UTF-8" standalone="no"?>
<svg width="512px" height="512px" viewBox="0 0 512 512" version="1.1" xmlns="http://www.w3.org/2000/svg" xmlns:xlink="http://www.w3.org/1999/xlink" xmlns:sketch="http://www.bohemiancoding.com/sketch/ns">
    <!-- Generator: Sketch 3.3.3 (12072) - http://www.bohemiancoding.com/sketch -->
    <title>Slice 1</title>
    <desc>Created with Sketch.</desc>
    <defs></defs>
    <g id="Page-1" stroke="none" stroke-width="1" fill="none" fill-rule="evenodd" sketch:type="MSPage">
        <path d="M256,0 C114.615,0 0,114.615 0,256 C0,397.385 114.615,512 256,512 C397.385,512 512,397.385 512,256 C512,114.615 397.385,0 256,0 L256,0 Z M433,157.263158 L419.03885,157.263158 C413.855633,157.263158 406.525,164.755368 406.525,169.550737 L406.525,343.389474 C406.525,348.190737 413.855633,354.736842 419.03885,354.736842 L433,354.736842 L433,396 L306.508333,396 L306.508333,354.736842 L332.983333,354.736842 L332.983333,172 L331.686058,172 L269.86105,396 L221.997192,396 L160.969375,172 L159.425,172 L159.425,354.736842 L185.9,354.736842 L185.9,396 L80,396 L80,354.736842 L93.5610833,354.736842 C99.1443667,354.736842 106.475,348.190737 106.475,343.389474 L106.475,169.550737 C106.475,164.755368 99.1443667,157.263158 93.5610833,157.263158 L80,157.263158 L80,116 L212.422067,116 L255.8999,278.105263 L257.097158,278.105263 L300.975058,116 L433,116 L433,157.263158" id="Shape" fill="#000000" sketch:type="MSShapeGroup"></path>
    </g>
</svg>