<?xml version="1.0" encoding="UTF-8" standalone="no"?>
<svg width="512px" height="512px" viewBox="0 0 512 512" version="1.1" xmlns="http://www.w3.org/2000/svg" xmlns:xlink="http://www.w3.org/1999/xlink" xmlns:sketch="http://www.bohemiancoding.com/sketch/ns">
    <!-- Generator: Sketch 3.0.3 (7891) - http://www.bohemiancoding.com/sketch -->
    <title>linkedin 2</title>
    <desc>Created with Sketch.</desc>
    <defs></defs>
    <g id="Page-1" stroke="none" stroke-width="1" fill="none" fill-rule="evenodd" sketch:type="MSPage">
        <g id="linkedin" sketch:type="MSLayerGroup" fill="#000000">
            <path d="M0,256 C3.49705965e-14,397.384896 114.615104,512 256,512 C397.384896,512 512,397.384896 512,256 C512,114.615104 397.384896,1.22437709e-15 256,0 C114.615104,-1.22437709e-15 -8.05350006e-15,114.615104 1.34585482e-14,256 L0,256 Z M192,416 L128,416 L128,192 L192,192 L192,416 L192,416 Z M160,160 C142.327,160 128,145.673 128,128 C128,110.327 142.327,96 160,96 C177.673,96 192,110.327 192,128 C192,145.673 177.673,160 160,160 L160,160 Z M416,416 L352,416 L352,288 C352,270.327 337.673,256 320,256 C302.327,256 288,270.327 288,288 L288,416 L224,416 L224,192 L288,192 L288,231.736 C301.199,213.604 321.376,192 344,192 C383.765,192 416,227.817 416,272 L416,416 L416,416 Z" id="Shape" sketch:type="MSShapeGroup"></path>
        </g>
    </g>
</svg>